<mxfile host="app.diagrams.net" modified="2024-02-24T19:38:35.522Z" agent="Mozilla/5.0 (X11; Linux x86_64) AppleWebKit/537.36 (KHTML, like Gecko) Chrome/122.0.0.0 Safari/537.36" etag="kbPz32XJgLXjcrfYtsWn" version="23.1.6" type="device">
  <diagram name="Page-1" id="TnuKJTBI8DYYxQVjKhfx">
    <mxGraphModel dx="1647" dy="910" grid="1" gridSize="10" guides="1" tooltips="1" connect="1" arrows="1" fold="1" page="1" pageScale="1" pageWidth="850" pageHeight="1100" math="0" shadow="0">
      <root>
        <mxCell id="0" />
        <mxCell id="1" parent="0" />
        <mxCell id="hmj91DvwdZiJ5NBtWmMM-1" value="Obtenemos informacion, relacionada a los trabajos" style="rounded=0;whiteSpace=wrap;html=1;" vertex="1" parent="1">
          <mxGeometry x="220" y="110" width="120" height="60" as="geometry" />
        </mxCell>
        <mxCell id="hmj91DvwdZiJ5NBtWmMM-2" value="Crawler" style="rounded=1;whiteSpace=wrap;html=1;" vertex="1" parent="1">
          <mxGeometry x="80" y="30" width="120" height="60" as="geometry" />
        </mxCell>
        <mxCell id="hmj91DvwdZiJ5NBtWmMM-3" value="Base de datos de magneto" style="rounded=1;whiteSpace=wrap;html=1;" vertex="1" parent="1">
          <mxGeometry x="340" y="30" width="120" height="60" as="geometry" />
        </mxCell>
        <mxCell id="hmj91DvwdZiJ5NBtWmMM-4" value="" style="endArrow=classic;html=1;rounded=0;" edge="1" parent="1" source="hmj91DvwdZiJ5NBtWmMM-2" target="hmj91DvwdZiJ5NBtWmMM-1">
          <mxGeometry width="50" height="50" relative="1" as="geometry">
            <mxPoint x="400" y="340" as="sourcePoint" />
            <mxPoint x="450" y="290" as="targetPoint" />
          </mxGeometry>
        </mxCell>
        <mxCell id="hmj91DvwdZiJ5NBtWmMM-5" value="" style="endArrow=classic;html=1;rounded=0;" edge="1" parent="1" source="hmj91DvwdZiJ5NBtWmMM-3" target="hmj91DvwdZiJ5NBtWmMM-1">
          <mxGeometry width="50" height="50" relative="1" as="geometry">
            <mxPoint x="400" y="340" as="sourcePoint" />
            <mxPoint x="450" y="290" as="targetPoint" />
          </mxGeometry>
        </mxCell>
        <mxCell id="hmj91DvwdZiJ5NBtWmMM-6" value="Se llena un formato con la informacion proporcionada" style="rounded=1;whiteSpace=wrap;html=1;" vertex="1" parent="1">
          <mxGeometry x="220" y="200" width="120" height="60" as="geometry" />
        </mxCell>
        <mxCell id="hmj91DvwdZiJ5NBtWmMM-7" value="El formato se convierte en una imagen" style="rounded=1;whiteSpace=wrap;html=1;" vertex="1" parent="1">
          <mxGeometry x="220" y="300" width="120" height="60" as="geometry" />
        </mxCell>
        <mxCell id="hmj91DvwdZiJ5NBtWmMM-8" value="" style="endArrow=classic;html=1;rounded=0;" edge="1" parent="1" source="hmj91DvwdZiJ5NBtWmMM-6" target="hmj91DvwdZiJ5NBtWmMM-7">
          <mxGeometry width="50" height="50" relative="1" as="geometry">
            <mxPoint x="400" y="340" as="sourcePoint" />
            <mxPoint x="450" y="290" as="targetPoint" />
          </mxGeometry>
        </mxCell>
        <mxCell id="hmj91DvwdZiJ5NBtWmMM-9" value="IA generativa genera una imagen bella" style="rounded=1;whiteSpace=wrap;html=1;" vertex="1" parent="1">
          <mxGeometry x="30" y="310" width="120" height="60" as="geometry" />
        </mxCell>
        <mxCell id="hmj91DvwdZiJ5NBtWmMM-10" value="Se melscla el formato con la imagen bella" style="rounded=1;whiteSpace=wrap;html=1;" vertex="1" parent="1">
          <mxGeometry x="90" y="390" width="120" height="60" as="geometry" />
        </mxCell>
        <mxCell id="hmj91DvwdZiJ5NBtWmMM-11" value="" style="endArrow=classic;html=1;rounded=0;" edge="1" parent="1" source="hmj91DvwdZiJ5NBtWmMM-1" target="hmj91DvwdZiJ5NBtWmMM-6">
          <mxGeometry width="50" height="50" relative="1" as="geometry">
            <mxPoint x="400" y="340" as="sourcePoint" />
            <mxPoint x="450" y="290" as="targetPoint" />
          </mxGeometry>
        </mxCell>
        <mxCell id="hmj91DvwdZiJ5NBtWmMM-12" value="" style="endArrow=classic;html=1;rounded=0;" edge="1" parent="1" source="hmj91DvwdZiJ5NBtWmMM-7" target="hmj91DvwdZiJ5NBtWmMM-10">
          <mxGeometry width="50" height="50" relative="1" as="geometry">
            <mxPoint x="400" y="340" as="sourcePoint" />
            <mxPoint x="450" y="290" as="targetPoint" />
          </mxGeometry>
        </mxCell>
        <mxCell id="hmj91DvwdZiJ5NBtWmMM-13" value="" style="endArrow=classic;html=1;rounded=0;" edge="1" parent="1" source="hmj91DvwdZiJ5NBtWmMM-9" target="hmj91DvwdZiJ5NBtWmMM-10">
          <mxGeometry width="50" height="50" relative="1" as="geometry">
            <mxPoint x="400" y="340" as="sourcePoint" />
            <mxPoint x="450" y="290" as="targetPoint" />
          </mxGeometry>
        </mxCell>
        <mxCell id="hmj91DvwdZiJ5NBtWmMM-15" value="" style="endArrow=classic;html=1;rounded=0;" edge="1" parent="1" source="hmj91DvwdZiJ5NBtWmMM-10">
          <mxGeometry width="50" height="50" relative="1" as="geometry">
            <mxPoint x="400" y="340" as="sourcePoint" />
            <mxPoint x="150" y="480" as="targetPoint" />
          </mxGeometry>
        </mxCell>
        <mxCell id="hmj91DvwdZiJ5NBtWmMM-16" value="Se postea la imagen" style="rounded=1;whiteSpace=wrap;html=1;" vertex="1" parent="1">
          <mxGeometry x="100" y="700" width="120" height="60" as="geometry" />
        </mxCell>
        <mxCell id="hmj91DvwdZiJ5NBtWmMM-17" value="&lt;br&gt;(acepta)" style="endArrow=classic;html=1;rounded=0;" edge="1" parent="1">
          <mxGeometry width="50" height="50" relative="1" as="geometry">
            <mxPoint x="152.3636363636365" y="540" as="sourcePoint" />
            <mxPoint x="159.63636363636374" y="700" as="targetPoint" />
          </mxGeometry>
        </mxCell>
        <mxCell id="hmj91DvwdZiJ5NBtWmMM-21" value="SI" style="edgeLabel;html=1;align=center;verticalAlign=middle;resizable=0;points=[];" vertex="1" connectable="0" parent="hmj91DvwdZiJ5NBtWmMM-17">
          <mxGeometry x="-0.0862" y="2" relative="1" as="geometry">
            <mxPoint as="offset" />
          </mxGeometry>
        </mxCell>
        <mxCell id="hmj91DvwdZiJ5NBtWmMM-18" value="" style="curved=1;endArrow=classic;html=1;rounded=0;exitX=1;exitY=0.5;exitDx=0;exitDy=0;" edge="1" parent="1" source="hmj91DvwdZiJ5NBtWmMM-16" target="hmj91DvwdZiJ5NBtWmMM-6">
          <mxGeometry width="50" height="50" relative="1" as="geometry">
            <mxPoint x="400" y="410" as="sourcePoint" />
            <mxPoint x="450" y="360" as="targetPoint" />
            <Array as="points">
              <mxPoint x="450" y="410" />
              <mxPoint x="400" y="360" />
            </Array>
          </mxGeometry>
        </mxCell>
        <mxCell id="hmj91DvwdZiJ5NBtWmMM-19" value="Se repite el proceso" style="rounded=1;whiteSpace=wrap;html=1;" vertex="1" parent="1">
          <mxGeometry x="350" y="390" width="120" height="60" as="geometry" />
        </mxCell>
        <mxCell id="hmj91DvwdZiJ5NBtWmMM-20" value="el usuario acepta o se rechaza el post en la pagina web" style="rhombus;whiteSpace=wrap;html=1;" vertex="1" parent="1">
          <mxGeometry x="110" y="470" width="80" height="80" as="geometry" />
        </mxCell>
        <mxCell id="hmj91DvwdZiJ5NBtWmMM-22" value="" style="endArrow=classic;html=1;rounded=0;" edge="1" parent="1" source="hmj91DvwdZiJ5NBtWmMM-20" target="hmj91DvwdZiJ5NBtWmMM-19">
          <mxGeometry width="50" height="50" relative="1" as="geometry">
            <mxPoint x="370" y="600" as="sourcePoint" />
            <mxPoint x="420" y="550" as="targetPoint" />
          </mxGeometry>
        </mxCell>
        <mxCell id="hmj91DvwdZiJ5NBtWmMM-23" value="NO (rechaza)" style="edgeLabel;html=1;align=center;verticalAlign=middle;resizable=0;points=[];" vertex="1" connectable="0" parent="hmj91DvwdZiJ5NBtWmMM-22">
          <mxGeometry x="-0.2925" relative="1" as="geometry">
            <mxPoint as="offset" />
          </mxGeometry>
        </mxCell>
      </root>
    </mxGraphModel>
  </diagram>
</mxfile>
